PathFileType	4	(X/Y/Z)	/Users/itak/Documents/Research/Walk-IL/dataset/trc/00357_00011.trc
DataRate	CameraRate	NumFrames	NumMarkers	Units	OrigDataRate	OrigDataStartFrame	OrigNumFrames
100.000000	100.000000	4	59	mm	100.000000	322	430
Frame#	Time	RPSI			LPSI			L3			STRN			T10			C7			CLAV			RBAK			LBAK			LSHO			LUPA			LAEL			LAOL			LWTS			LWPS			LFRA			LHPS			LHTS			RSHO			RUPA			RAEL			RAOL			RWTS			RWPS			RFRA			RIFD			RHTS			RHPS			RBHD			LFHD			RFHD			LBHD			RHIP			RASI			LASI			LKNE			LTHI			LANK			LTIP			LTOE			LMT1			LMT5			LHEE			RKNE			RTHI			RANK			RTIP			RTOE			RMT5			RHEE			LIFD			LHIP			RMT1			*53			*54			*55			*56			*57			*58			
		X1	Y1	Z1	X2	Y2	Z2	X3	Y3	Z3	X4	Y4	Z4	X5	Y5	Z5	X6	Y6	Z6	X7	Y7	Z7	X8	Y8	Z8	X9	Y9	Z9	X10	Y10	Z10	X11	Y11	Z11	X12	Y12	Z12	X13	Y13	Z13	X14	Y14	Z14	X15	Y15	Z15	X16	Y16	Z16	X17	Y17	Z17	X18	Y18	Z18	X19	Y19	Z19	X20	Y20	Z20	X21	Y21	Z21	X22	Y22	Z22	X23	Y23	Z23	X24	Y24	Z24	X25	Y25	Z25	X26	Y26	Z26	X27	Y27	Z27	X28	Y28	Z28	X29	Y29	Z29	X30	Y30	Z30	X31	Y31	Z31	X32	Y32	Z32	X33	Y33	Z33	X34	Y34	Z34	X35	Y35	Z35	X36	Y36	Z36	X37	Y37	Z37	X38	Y38	Z38	X39	Y39	Z39	X40	Y40	Z40	X41	Y41	Z41	X42	Y42	Z42	X43	Y43	Z43	X44	Y44	Z44	X45	Y45	Z45	X46	Y46	Z46	X47	Y47	Z47	X48	Y48	Z48	X49	Y49	Z49	X50	Y50	Z50	X51	Y51	Z51	X52	Y52	Z52	X53	Y53	Z53	X54	Y54	Z54	X55	Y55	Z55	X56	Y56	Z56	X57	Y57	Z57	X58	Y58	Z58	X59	Y59	Z59	

323	3.22	626.8313598632812	966.3989868164062	-254.2195587158203	500.7159423828125	966.50146484375	-224.6735229492188	570.9584350585938	1024.369384765625	-237.7444152832031	503.020263671875	1222.139404296875	-448.6946105957031	566.1362915039062	1145.111328125	-219.5445404052734	537.4091186523438	1394.459228515625	-241.0718688964844	507.8490295410156	1344.973876953125	-398.1723937988281	618.1044921875	1253.621215820312	-220.6083679199219	443.03466796875	1353.91259765625	-209.3322906494141	366.7132568359375	1372.4912109375	-277.7621765136719	312.0064392089844	1248.755493164062	-244.9294281005859	311.2376098632812	1043.94140625	-256.9161071777344	383.5016479492188	1033.888671875	-216.9785461425781	326.7781677246094	805.6043090820312	-367.21142578125	295.8716430664062	789.9134521484375	-307.3187866210938	304.1528015136719	939.1294555664062	-269.7690124511719	307.9256286621094	720.828857421875	-309.5430908203125	310.9687194824219	726.1766967773438	-373.0028076171875	683.7443237304688	1389.667114257812	-334.6375427246094	748.86279296875	1326.294311523438	-346.4950256347656	792.451904296875	1072.449951171875	-431.4656982421875	723.7386474609375	1043.489868164062	-374.4660034179688	699.3444213867188	897.686767578125	-592.6405029296875	771.0897216796875	871.999267578125	-587.5520629882812	791.8388061523438	1016.7734375	-478.5258178710938	691.868896484375	745.4584350585938	-675.1304321289062	697.305908203125	817.6419677734375	-661.6127319335938	757.7799682617188	802.8036499023438	-633.3317260742188	601.7018432617188	1601.996459960938	-281.9852905273438	449.5772094726562	1626.148681640625	-422.5626525878906	550.255615234375	1630.213500976562	-433.7189025878906	464.3769226074219	1588.444702148438	-240.1596984863281	715.5186157226562	915.675048828125	-356.3522644042969	651.7080078125	947.2843017578125	-450.4075927734375	413.66748046875	949.631591796875	-419.8151245117188	339.6457214355469	483.8531188964844	-468.7619934082031	343.4630737304688	613.1527709960938	-425.9332580566406	374.7093505859375	90.81598663330078	-268.7964172363281	346.2202758789062	280.9877014160156	-364.3723754882812	388.7462463378906	78.66670227050781	-480.7527770996094	443.0775451660156	66.62029266357422	-420.4314575195312	336.7119750976562	78.22650146484375	-386.6939697265625	447.8350830078125	91.47199249267578	-248.6679840087891	657.5103149414062	454.2618408203125	-439.3275146484375	689.3762817382812	714.5189208984375	-450.3416748046875	619.750732421875	42.41425323486328	-375.5223388671875	640.7037353515625	334.6163940429688	-449.3853759765625	546.334228515625	36.62250137329102	-564.6942138671875	510.8944091796875	35.70319366455078	-504.6303100585938	575.5157470703125	47.14466094970703	-322.4237670898438	337.3814392089844	643.5684814453125	-374.2917175292969	380.9107666015625	917.8799438476562	-289.8652038574219	625.9359741210938	29.93877792358398	-476.0392150878906	nan	nan	nan	nan	nan	nan	nan	nan	nan	nan	nan	nan	nan	nan	nan	nan	nan	nan	
324	3.23	626.1978759765625	966.7154541015625	-257.0865173339844	499.9470825195312	966.9950561523438	-228.337890625	570.3546752929688	1024.542602539062	-240.9797058105469	504.0912170410156	1222.376342773438	-452.2434387207031	565.7404174804688	1145.380493164062	-222.510986328125	537.4035034179688	1394.70263671875	-244.4116363525391	508.7453308105469	1345.232299804688	-401.7091064453125	617.8090209960938	1253.779541015625	-223.3665924072266	442.7675170898438	1354.29638671875	-213.2659149169922	366.7911682128906	1372.947631835938	-282.2719116210938	311.95263671875	1249.109497070312	-249.9275512695312	311.8551940917969	1044.341430664062	-261.6317138671875	383.8794860839844	1034.328491210938	-221.9497528076172	326.5565490722656	805.4434814453125	-371.0246276855469	296.2243957519531	789.994140625	-310.7261962890625	304.5910034179688	939.5099487304688	-274.1127624511719	308.432861328125	720.9375610351562	-312.6918640136719	311.0041809082031	725.8939819335938	-376.2160339355469	684.2879028320312	1389.58642578125	-337.0180358886719	749.3937377929688	1326.07861328125	-348.5608520507812	792.338134765625	1071.899780273438	-433.2436828613281	722.6881713867188	1043.319580078125	-377.1280822753906	699.3026733398438	899.6076049804688	-596.9613037109375	770.5564575195312	872.7572631835938	-591.011474609375	791.71240234375	1016.375427246094	-480.6172790527344	690.832763671875	748.33349609375	-681.1083374023438	697.0059814453125	820.16845703125	-666.7164916992188	756.8475341796875	804.1580200195312	-637.6305541992188	602.5269165039062	1602.114379882812	-285.4268798828125	450.5382690429688	1626.430419921875	-426.1299438476562	551.2310180664062	1630.34716796875	-437.2224731445312	465.107421875	1588.7626953125	-243.7411651611328	715.0936889648438	915.38525390625	-359.4143981933594	652.3382568359375	947.2911376953125	-453.0212097167969	414.1144104003906	949.9306640625	-424.1332092285156	341.5227355957031	482.5623168945312	-470.5248107910156	344.6341857910156	612.6385498046875	-428.4321594238281	369.1969604492188	84.77486419677734	-280.5987548828125	344.4429931640625	277.8115234375	-370.9512634277344	386.3601379394531	80.43218231201172	-492.8433532714844	439.5115661621094	65.40981292724609	-432.0674438476562	332.9169006347656	77.32057952880859	-399.5533752441406	442.0468444824219	83.25961303710938	-259.3675231933594	657.9973754882812	453.962890625	-439.7891235351562	689.7703247070312	714.1412353515625	-451.5267028808594	619.6622314453125	42.37963104248047	-375.4707336425781	640.989013671875	334.3753051757812	-449.5526428222656	546.36279296875	36.68643188476562	-564.656982421875	510.9256896972656	35.7093391418457	-504.5766906738281	575.448486328125	47.1049919128418	-322.4279479980469	336.9746704101562	643.4464721679688	-377.4073181152344	380.8339538574219	918.3377685546875	-294.2544250488281	625.9371948242188	29.93906021118164	-476.0256652832031	nan	nan	nan	nan	nan	nan	nan	nan	nan	nan	nan	nan	nan	nan	nan	nan	nan	nan	
325	3.24	625.4769897460938	967.0223999023438	-259.9007568359375	499.1192626953125	967.4685668945312	-231.9577941894531	569.6643676757812	1024.718994140625	-244.1286773681641	505.1534423828125	1222.614624023438	-455.7010803222656	565.203125	1145.627807617188	-225.4538116455078	537.2989501953125	1394.938842773438	-247.6495971679688	509.618408203125	1345.496704101562	-405.1556701660156	617.3954467773438	1253.944213867188	-225.9446868896484	442.3422546386719	1354.684692382812	-217.1618804931641	366.7608337402344	1373.40771484375	-286.8134460449219	311.7380981445312	1249.528076171875	-254.9592590332031	312.1052856445312	1044.81982421875	-266.4373474121094	383.8368225097656	1034.756469726562	-226.8048858642578	326.1960144042969	805.2738647460938	-374.8243713378906	296.1239318847656	790.1754760742188	-314.2662048339844	304.6226501464844	939.9805908203125	-278.5514221191406	308.3992614746094	721.14697265625	-315.8280334472656	310.9122314453125	725.6069946289062	-379.38427734375	684.7651977539062	1389.526977539062	-339.2344055175781	749.87158203125	1325.889892578125	-350.4341125488281	792.1618041992188	1071.292114257812	-434.6089477539062	721.5703735351562	1043.190063476562	-379.3807067871094	699.3009033203125	901.3834838867188	-600.7628784179688	770.0573120117188	873.3679809570312	-593.9129028320312	791.5515747070312	1015.876708984375	-482.2443237304688	689.8419189453125	751.0241088867188	-686.4317016601562	696.7711791992188	822.4978637695312	-671.2265014648438	755.9671020507812	805.3621215820312	-641.3267211914062	603.289306640625	1602.2080078125	-288.7464599609375	451.4723815917969	1626.703002929688	-429.6171875	552.1865234375	1630.464477539062	-440.6194763183594	465.7689819335938	1589.072875976562	-247.2425994873047	714.7229614257812	915.2259521484375	-362.1388854980469	652.9397583007812	947.3628540039062	-455.5865478515625	414.5264892578125	950.210693359375	-428.3941040039062	343.5153198242188	481.1643981933594	-471.8684692382812	345.7996520996094	612.07177734375	-430.6811828613281	363.9070129394531	79.18544006347656	-291.8595581054688	342.7825012207031	274.7369689941406	-377.1571655273438	384.3561401367188	82.06156158447266	-504.0706787109375	436.2784729003906	64.22716522216797	-442.9501342773438	329.4635009765625	76.50153350830078	-411.6869201660156	436.4316101074219	75.55084991455078	-269.6929321289062	658.4987182617188	453.7079467773438	-440.0169067382812	690.1785278320312	713.8076171875	-452.4778442382812	619.5919189453125	42.34207534790039	-375.4104614257812	641.3146362304688	334.1954956054688	-449.5408630371094	546.40576171875	36.77618026733398	-564.5965576171875	510.9770202636719	35.73600769042969	-504.5055541992188	575.3887939453125	47.05371856689453	-322.4303283691406	335.9544677734375	643.3133544921875	-380.3041687011719	380.7282104492188	918.84619140625	-298.460693359375	625.9459228515625	29.93587684631348	-476.0071105957031	nan	nan	nan	nan	nan	nan	nan	nan	nan	nan	nan	nan	nan	nan	nan	nan	nan	nan	
326	3.25	624.6675415039062	967.323974609375	-262.6656494140625	498.220947265625	967.9306640625	-235.5434265136719	568.8870239257812	1024.876342773438	-247.2157440185547	506.1960754394531	1222.846801757812	-459.0711669921875	564.5075073242188	1145.829833984375	-228.374267578125	537.09619140625	1395.153686523438	-250.7882385253906	510.4661254882812	1345.755615234375	-408.5113525390625	616.8623046875	1254.097290039062	-228.3483428955078	441.766357421875	1355.060424804688	-221.021484375	366.6300659179688	1373.852661132812	-291.3750305175781	311.3591613769531	1250.000244140625	-260.0128784179688	311.9705810546875	1045.353149414062	-271.3476867675781	383.3588562011719	1035.176879882812	-231.5123138427734	325.7593383789062	805.0947265625	-378.639892578125	295.5892639160156	790.4532470703125	-317.9987487792969	304.2515869140625	940.5258178710938	-283.12353515625	307.8463745117188	721.4479370117188	-319.0063781738281	310.7275390625	725.3270874023438	-382.5592041015625	685.18408203125	1389.477416992188	-341.3024291992188	750.2884521484375	1325.706420898438	-352.1168518066406	791.9244384765625	1070.622436523438	-435.6065673828125	720.4076538085938	1043.071655273438	-381.2831115722656	699.31640625	902.9697875976562	-604.041015625	769.5771484375	873.821533203125	-596.2896118164062	791.3604125976562	1015.289367675781	-483.4582214355469	688.8900756835938	753.48291015625	-691.0940551757812	696.5851440429688	824.590576171875	-675.1369018554688	755.1322631835938	806.397216796875	-644.4494018554688	603.9866333007812	1602.270874023438	-291.9492492675781	452.3795166015625	1626.953002929688	-433.0313110351562	553.1214599609375	1630.553588867188	-443.9137573242188	466.3641052246094	1589.369018554688	-250.6636047363281	714.4053955078125	915.1851196289062	-364.579833984375	653.5038452148438	947.4852294921875	-458.1006469726562	414.90380859375	950.4586791992188	-432.5980834960938	345.5652465820312	479.7106018066406	-472.8269653320312	346.9402160644531	611.4528198242188	-432.6688537597656	358.9493103027344	74.052001953125	-302.5348815917969	341.2595520019531	271.7862243652344	-382.990478515625	382.7925720214844	83.49098968505859	-514.4527587890625	433.4393615722656	63.0307731628418	-453.0634765625	326.4153747558594	75.71826934814453	-423.0878295898438	431.0941162109375	68.42169952392578	-279.5712585449219	659.0126953125	453.5163269042969	-440.0340270996094	690.5993041992188	713.5374755859375	-453.2183532714844	619.5438842773438	42.3048210144043	-375.3420715332031	641.6836547851562	334.0792541503906	-449.359619140625	546.4668579101562	36.89198303222656	-564.5108032226562	511.0509643554688	35.78977966308594	-504.4229736328125	575.336669921875	46.98946380615234	-322.4269409179688	334.4047546386719	643.1764526367188	-383.0079650878906	380.54931640625	919.3597412109375	-302.5321350097656	625.962890625	29.9274730682373	-475.9823913574219	nan	nan	nan	nan	nan	nan	nan	nan	nan	nan	nan	nan	nan	nan	nan	nan	nan	nan	
